<?xml version="1.0" encoding="utf-8"?>
<!-- Generator: Adobe Illustrator 26.0.1, SVG Export Plug-In . SVG Version: 6.00 Build 0)  -->
<svg version="1.1" id="Layer_1" xmlns="http://www.w3.org/2000/svg" xmlns:xlink="http://www.w3.org/1999/xlink" x="0px" y="0px"
	 viewBox="0 0 283.47 283.47" style="enable-background:new 0 0 283.47 283.47;" xml:space="preserve">
<style type="text/css">
	.st0{fill:#102D69;}
	.st1{fill:#FFFFFF;}
</style>
<circle class="st0" cx="141.73" cy="141.74" r="133.51"/>
<path class="st1" d="M141.73,0C63.58,0,0,63.57,0,141.72c0,78.16,63.58,141.75,141.73,141.75c78.15,0,141.73-63.59,141.73-141.75
	C283.46,63.57,219.88,0,141.73,0z M141.73,275.25c-73.62,0-133.51-59.9-133.51-133.54c0-73.61,59.89-133.5,133.51-133.5
	c73.62,0,133.51,59.89,133.51,133.5C275.25,215.35,215.35,275.25,141.73,275.25z M165.26,129.32c8.95-3.66,14.39-9.3,17.95-13.58
	c6.81-7.83,9.6-17.44,9.6-26.52c0-7.34-2.02-21.99-14.9-32.08c-8.83-6.84-16.67-10.12-35.37-10.12h-9.46
	c-0.29-0.01-0.58-0.01-0.93-0.01H93.11V231.3h111.43v-35.37C204.54,162.08,193.6,139.33,165.26,129.32z M179.29,221.15H159.2v-61.51
	h-23.21v61.58h-17.75V56.2h18.24c6.83,0,17.19,1.53,24.52,10.63c3.82,4.6,6.16,10.72,6.98,16.88h-31.98v9.08h32.27
	c-0.26,5.86-1.45,12.42-7.2,19.39c-5.05,6.32-13.36,12.19-25.08,12.19h-0.19v9.19c31.32,0,43.51,20.82,43.51,58.93V221.15z"/>
</svg>
